General
Complete name                : My Week With Marilyn[2011]BRrip[Ac3-5.1]-=[CaLvIn]=-
Imdb Link                        : http://www.imdb.com/title/tt1655420
Format                           : AVI
Format/Info                      : Audio Video Interleave
File size                        : 700 MiB
Duration                         : 1h 38mn
Overall bit rate                 : 990 Kbps
Writing application              : VirtualDubMod 1.5.10.3 | www.virtualdub-fr.org || (build 2550/release)
Writing library                  : VirtualDubMod build 2550/release

Video
ID                               : 0
Format                           : MPEG-4 Visual
Format profile                   : Advanced Simple@L5
Format settings, BVOP            : 2
Format settings, QPel            : No
Format settings, GMC             : No warppoints
Format settings, Matrix          : Default (H.263)
Codec ID                         : XVID
Codec ID/Hint                    : XviD
Duration                         : 1h 38mn
Bit rate                         : 788 Kbps
Width                            : 720 pixels
Height                           : 304 pixels
Display aspect ratio             : 16:9
Frame rate                       : 23.976 fps
Color space                      : YUV
Chroma subsampling               : 4:2:0
Bit depth                        : 8 bits
Scan type                        : Progressive
Compression mode                 : Lossy
Bits/(Pixel*Frame)               : 0.150
Stream size                      : 558 MiB (80%)
Writing library                  : XviD 1.2.1 (UTC 2008-12-04)

Audio
ID                               : 1
Format                           : AC-3
Format/Info                      : Audio Coding 3
Mode extension                   : CM (complete main)
Codec ID                         : 2000
Duration                         : 1h 38mn
Bit rate mode                    : Constant
Bit rate                         : 192 Kbps
Channel(s)                       : 6 channels
Channel positions                : Front: L C R, Side: L R, LFE
Sampling rate                    : 48.0 KHz
Bit depth                        : 16 bits
Compression mode                 : Lossy
Stream size                      : 136 MiB (19%)
Alignment                        : Split accross interleaves
Interleave, duration             : 42 ms (1.00 video frame)
Interleave, preload duration     : 500 ms

Screens
 
http://img849.imageshack.us/img849/8946/38449592.png 
http://img37.imageshack.us/img37/6909/18615691.png 
http://img846.imageshack.us/img846/2774/42468856.png 
http://img266.imageshack.us/img266/3427/61613131.png 
http://img10.imageshack.us/img10/9067/54658237.png 
http://img703.imageshack.us/img703/9063/34533184.png 
http://img20.imageshack.us/img20/3728/55977205.png 
http://img33.imageshack.us/img33/966/97475343.png 
http://img98.imageshack.us/img98/7590/62531669.png 
http://img51.imageshack.us/img51/7343/74151601.png

